<?xml version="1.0" ?><svg xmlns="http://www.w3.org/2000/svg" xmlns:xlink="http://www.w3.org/1999/xlink" version="1.1" viewBox="0 0 512 512" style="enable-background:new 0 0 512 512;" xml:space="preserve"><g id="_x32_7_x2C__Donut_Chart_x2C__pie_chart_x2C__data_analysis_x2C__business_and_finance_x2C__finances_x2C__stats"><g><g><path style="fill:#5596FB;" d="M261.196,338.46c-1.053-4.279-4.783-7.365-9.185-7.597c-39.811-2.095-70.995-34.992-70.995-74.894     c0-41.355,33.645-75,75-75c23.276,0,44.847,10.557,59.181,28.964c2.941,3.778,8.149,4.941,12.418,2.772l45.13-22.92     c5.349-2.717,7.117-9.507,3.776-14.487c-27.021-40.28-72.07-64.329-120.505-64.329c-79.953,0-145,65.047-145,145     c0,83.324,70.391,149.582,153.333,144.754c6.241-0.366,10.62-6.31,9.127-12.373L261.196,338.46z M131.016,255.97     c0-68.925,56.075-125,125-125c37.95,0,73.492,17.13,97.147,46.329l-27.576,14.005c-17.947-19.375-42.871-30.334-69.571-30.334     c-52.383,0-95,42.617-95,95c0,48.013,35.655,88.02,82.46,94.179l7.563,30.724C184.41,378.251,131.016,323.23,131.016,255.97z"/><path style="fill:#5596FB;" d="M394.893,214.174c-1.793-5.972-8.562-8.857-14.104-6.04l-45.77,23.24     c-3.959,2.01-6.118,6.39-5.302,10.755c6.479,34.67-11.964,68.288-42.957,82.243c-4.401,1.981-6.759,6.823-5.604,11.51     l12.091,49.09c1.429,5.802,7.599,9.056,13.188,6.984c55.849-20.718,94.582-74.227,94.582-135.986     C401.016,241.764,398.957,227.701,394.893,214.174z M309.863,368.805l-7.386-29.984c32.725-18.377,52.067-54.792,48.001-92.865     l28.17-14.304C389.939,288.89,360.045,344.785,309.863,368.805z"/></g><g><path style="fill:#283954;" d="M113.495,357.539c-21.248-29.758-32.479-64.88-32.479-101.569     c0-83.837,59.67-156.114,141.881-171.858c4.712-0.902,8.119-5.023,8.119-9.821V13.47c0-6.07-5.379-10.761-11.416-9.899     C93.928,21.544-0.898,130.525,1.012,260c0.789,53.453,18.349,107.024,53.578,152.347c3.698,4.758,10.723,5.176,14.966,0.936     l42.87-42.86C115.883,366.966,116.335,361.517,113.495,357.539z M63.619,390.937c-27.911-39.63-42.603-86.052-42.603-134.967     c0-112.296,80.903-209.473,190-230.677v40.91c-87.404,20.62-150,99.132-150,189.767c0,38.029,10.834,74.556,31.41,106.166     L63.619,390.937z"/><path style="fill:#283954;" d="M261.217,1.032c-5.704-0.122-10.201,4.509-10.201,9.998v60.01c0,5.42,4.317,9.853,9.734,9.996     c95.477,2.534,170.266,79.374,170.266,174.934c0,96.495-78.505,175-175,175c-43.439,0-85.096-16.03-117.294-45.138     c-3.952-3.573-10.011-3.421-13.777,0.347l-42.46,42.46c-4.01,4.01-3.883,10.555,0.274,14.406     c47.274,43.802,108.805,67.925,173.257,67.925c140.932,0,255-114.049,255-255C511.016,116.346,399.233,3.804,261.217,1.032z      M256.016,490.97c-55.919,0-109.452-19.705-151.882-55.695l28.393-28.394c34.782,28.498,78.269,44.089,123.489,44.089     c107.523,0,195-87.477,195-195c0-102.875-79.451-186.801-180-194.429V21.456c122.221,7.81,220,110.933,220,234.514     C491.016,385.549,385.595,490.97,256.016,490.97z"/><path style="fill:#283954;" d="M211.016,255.97c0,24.813,20.187,45,45,45s45-20.187,45-45s-20.187-45-45-45     S211.016,231.156,211.016,255.97z M256.016,230.97c13.785,0,25,11.215,25,25s-11.215,25-25,25c-13.785,0-25-11.215-25-25     S242.231,230.97,256.016,230.97z"/></g></g></g><g id="Layer_1"/></svg>
